<svg xmlns="http://www.w3.org/2000/svg" viewBox="0 0 128 128" fill="none">
  <rect width="128" height="128" rx="30" fill="#020617"/>
  <rect x="14" y="14" width="100" height="100" rx="24" fill="#0f172a" stroke="#22d3ee" stroke-width="4"/>
  <path d="M37 64c0-16.016 12.984-29 29-29 10.299 0 19.344 5.366 24.502 13.457l-11.34 6.189C76.068 49.94 71.385 47 66 47c-9.389 0-17 7.611-17 17s7.611 17 17 17c5.385 0 10.068-2.94 13.162-7.646l11.34 6.189C85.344 87.634 76.299 93 66 93 49.984 93 37 80.016 37 64Z" fill="#22d3ee"/>
  <circle cx="88" cy="64" r="7" fill="#a78bfa"/>
</svg>
